<?xml version="1.0" encoding="utf-8"?>
<svg xmlns="http://www.w3.org/2000/svg" xmlns:xlink="http://www.w3.org/1999/xlink" style="margin: auto; background: none; display: block; shape-rendering: auto;" width="306px" height="306px" viewBox="0 0 100 100" preserveAspectRatio="xMidYMid">
<g transform="rotate(0 50 50)">
  <rect x="47.5" y="31.5" rx="1.8" ry="1.8" width="5" height="9" fill="#1c4595">
    <animate attributeName="opacity" values="1;0" keyTimes="0;1" dur="0.7299270072992701s" begin="-0.6690997566909975s" repeatCount="indefinite"></animate>
  </rect>
</g><g transform="rotate(30 50 50)">
  <rect x="47.5" y="31.5" rx="1.8" ry="1.8" width="5" height="9" fill="#1c4595">
    <animate attributeName="opacity" values="1;0" keyTimes="0;1" dur="0.7299270072992701s" begin="-0.608272506082725s" repeatCount="indefinite"></animate>
  </rect>
</g><g transform="rotate(60 50 50)">
  <rect x="47.5" y="31.5" rx="1.8" ry="1.8" width="5" height="9" fill="#1c4595">
    <animate attributeName="opacity" values="1;0" keyTimes="0;1" dur="0.7299270072992701s" begin="-0.5474452554744526s" repeatCount="indefinite"></animate>
  </rect>
</g><g transform="rotate(90 50 50)">
  <rect x="47.5" y="31.5" rx="1.8" ry="1.8" width="5" height="9" fill="#1c4595">
    <animate attributeName="opacity" values="1;0" keyTimes="0;1" dur="0.7299270072992701s" begin="-0.48661800486618s" repeatCount="indefinite"></animate>
  </rect>
</g><g transform="rotate(120 50 50)">
  <rect x="47.5" y="31.5" rx="1.8" ry="1.8" width="5" height="9" fill="#1c4595">
    <animate attributeName="opacity" values="1;0" keyTimes="0;1" dur="0.7299270072992701s" begin="-0.4257907542579075s" repeatCount="indefinite"></animate>
  </rect>
</g><g transform="rotate(150 50 50)">
  <rect x="47.5" y="31.5" rx="1.8" ry="1.8" width="5" height="9" fill="#1c4595">
    <animate attributeName="opacity" values="1;0" keyTimes="0;1" dur="0.7299270072992701s" begin="-0.36496350364963503s" repeatCount="indefinite"></animate>
  </rect>
</g><g transform="rotate(180 50 50)">
  <rect x="47.5" y="31.5" rx="1.8" ry="1.8" width="5" height="9" fill="#1c4595">
    <animate attributeName="opacity" values="1;0" keyTimes="0;1" dur="0.7299270072992701s" begin="-0.3041362530413625s" repeatCount="indefinite"></animate>
  </rect>
</g><g transform="rotate(210 50 50)">
  <rect x="47.5" y="31.5" rx="1.8" ry="1.8" width="5" height="9" fill="#1c4595">
    <animate attributeName="opacity" values="1;0" keyTimes="0;1" dur="0.7299270072992701s" begin="-0.24330900243309s" repeatCount="indefinite"></animate>
  </rect>
</g><g transform="rotate(240 50 50)">
  <rect x="47.5" y="31.5" rx="1.8" ry="1.8" width="5" height="9" fill="#1c4595">
    <animate attributeName="opacity" values="1;0" keyTimes="0;1" dur="0.7299270072992701s" begin="-0.18248175182481752s" repeatCount="indefinite"></animate>
  </rect>
</g><g transform="rotate(270 50 50)">
  <rect x="47.5" y="31.5" rx="1.8" ry="1.8" width="5" height="9" fill="#1c4595">
    <animate attributeName="opacity" values="1;0" keyTimes="0;1" dur="0.7299270072992701s" begin="-0.121654501216545s" repeatCount="indefinite"></animate>
  </rect>
</g><g transform="rotate(300 50 50)">
  <rect x="47.5" y="31.5" rx="1.8" ry="1.8" width="5" height="9" fill="#1c4595">
    <animate attributeName="opacity" values="1;0" keyTimes="0;1" dur="0.7299270072992701s" begin="-0.0608272506082725s" repeatCount="indefinite"></animate>
  </rect>
</g><g transform="rotate(330 50 50)">
  <rect x="47.5" y="31.5" rx="1.8" ry="1.8" width="5" height="9" fill="#1c4595">
    <animate attributeName="opacity" values="1;0" keyTimes="0;1" dur="0.7299270072992701s" begin="0s" repeatCount="indefinite"></animate>
  </rect>
</g>
<!-- [ldio] generated by https://loading.io/ --></svg>